<?xml version="1.0" standalone="no"?>
<!DOCTYPE svg PUBLIC "-//W3C//DTD SVG 20010904//EN"
 "http://www.w3.org/TR/2001/REC-SVG-20010904/DTD/svg10.dtd">
<svg version="1.0" xmlns="http://www.w3.org/2000/svg"
 width="300.000000pt" height="300.000000pt" viewBox="0 0 300.000000 300.000000"
 preserveAspectRatio="xMidYMid meet">

<g transform="translate(0.000000,300.000000) scale(0.100000,-0.100000)"
fill="#000000" stroke="none">
<path d="M1225 2985 c-27 -7 -86 -23 -130 -35 -44 -12 -96 -27 -116 -32 l-36
-10 28 -101 c15 -56 27 -102 26 -103 -1 -1 -31 -16 -67 -33 -36 -18 -100 -55
-143 -83 l-78 -51 -72 71 c-40 40 -75 72 -78 72 -8 0 -239 -231 -239 -239 0
-3 32 -38 72 -78 l71 -72 -51 -78 c-28 -43 -65 -107 -83 -143 -17 -36 -32 -66
-33 -67 -1 -1 -47 11 -103 26 l-101 28 -10 -36 c-5 -20 -20 -72 -32 -116 -12
-44 -28 -103 -35 -132 l-12 -51 101 -27 101 -27 0 -168 0 -168 -101 -27 -101
-27 12 -51 c7 -29 23 -88 35 -132 12 -44 27 -96 32 -116 l10 -36 101 28 c56
15 102 27 103 26 1 -1 16 -31 33 -67 18 -36 55 -100 83 -143 l51 -78 -71 -72
c-40 -40 -72 -75 -72 -79 0 -8 230 -238 238 -238 4 0 39 32 79 72 l72 71 68
-45 c37 -25 102 -62 143 -83 41 -21 76 -38 77 -39 1 -1 -11 -47 -26 -103 l-28
-101 41 -11 c23 -7 75 -21 116 -32 41 -11 98 -26 127 -33 l51 -13 27 102 27
101 137 -4 c152 -5 203 4 251 44 65 55 75 152 23 214 -45 54 -68 60 -222 60
-156 0 -249 14 -361 56 -321 120 -562 402 -626 732 -18 95 -18 289 0 384 37
194 131 365 281 513 136 134 310 225 493 261 95 18 289 18 384 0 350 -68 645
-335 752 -681 27 -89 36 -166 36 -307 0 -152 6 -176 59 -221 85 -71 209 -28
247 86 13 40 16 77 12 187 l-4 138 102 27 102 27 -9 37 c-13 51 -39 148 -54
201 -7 25 -16 57 -19 71 l-6 26 -102 -28 c-57 -15 -103 -27 -104 -26 -1 1 -18
36 -38 77 -21 41 -58 105 -83 143 l-46 68 71 72 c40 40 72 75 72 79 0 8 -230
238 -238 238 -4 0 -39 -32 -79 -72 l-72 -71 -78 51 c-43 28 -107 65 -143 83
-36 17 -66 32 -67 33 -1 1 11 47 26 104 l28 102 -26 6 c-14 3 -46 12 -71 19
-53 15 -150 41 -201 54 l-37 9 -27 -102 -27 -101 -168 0 -168 0 -27 103 c-15
56 -28 102 -29 101 0 -1 -23 -7 -51 -14z"/>
<path d="M1513 2146 c-45 -6 -84 -14 -88 -17 -6 -7 68 -112 253 -359 72 -96
102 -143 102 -163 0 -46 -131 -237 -181 -262 -52 -28 -240 -77 -265 -71 -24 6
-51 41 -323 410 l-73 99 -20 -44 c-11 -24 -26 -57 -34 -74 -32 -71 -44 -122
-44 -190 0 -127 27 -181 213 -422 65 -85 89 -109 141 -138 112 -62 149 -64
414 -24 l83 13 307 -306 c196 -196 323 -315 351 -329 95 -49 240 -23 323 58
81 79 108 227 59 325 -16 31 -119 141 -326 348 l-302 302 34 81 c34 77 35 83
31 181 -5 121 -10 132 -138 306 -146 200 -199 244 -331 275 -71 16 -71 16
-186 1z"/>
</g>
</svg>
